<?xml version="1.0" standalone="no"?>
<!DOCTYPE svg PUBLIC "-//W3C//DTD SVG 20010904//EN"
 "http://www.w3.org/TR/2001/REC-SVG-20010904/DTD/svg10.dtd">
<svg version="1.0" xmlns="http://www.w3.org/2000/svg" width="512.000000pt" height="512.000000pt" viewBox="0 0 512.000000 512.000000" preserveAspectRatio="xMidYMid meet">
    <defs>
        <linearGradient id="grad1" x1="0%" y1="0%" x2="100%" y2="0%">
            <stop offset="0%" style="stop-color:rgb(55,119,113);stop-opacity:1" />
            <stop offset="60%" style="stop-color:rgb(146,201,177);stop-opacity:1" />
        </linearGradient>
    </defs>

    <g transform="translate(0.000000,512.000000) scale(0.100000,-0.100000)" fill="url(#grad1)" stroke="none">
        <path d="M1705 5105 c-719 -105 -1328 -597 -1583 -1277 -46 -120 -97 -327
-112 -448 -15 -127 -12 -406 6 -529 106 -726 605 -1339 1294 -1589 239 -86
521 -131 735 -117 l100 6 34 -108 c40 -128 128 -303 208 -416 74 -104 245
-276 349 -349 159 -113 351 -200 544 -245 130 -30 399 -42 531 -24 617 87
1104 517 1263 1115 39 144 49 256 43 443 -6 171 -23 272 -68 413 -34 105 -132
298 -200 395 -79 112 -248 281 -357 359 -111 78 -286 166 -414 206 l-104 33 0
166 c1 189 -13 306 -56 471 -93 366 -264 667 -528 930 -307 308 -700 504
-1133 565 -126 18 -428 18 -552 0z m533 -291 c615 -98 1119 -504 1338 -1077
72 -188 104 -361 107 -578 l2 -144 -125 -6 c-140 -7 -228 -20 -338 -50 -569
-157 -994 -626 -1092 -1208 -11 -64 -20 -163 -20 -220 l0 -104 -152 6 c-306
13 -527 71 -778 203 -256 136 -473 334 -626 570 -297 460 -349 1050 -138 1563
90 219 208 396 379 567 136 137 215 198 365 283 171 97 332 154 540 191 137
24 401 26 538 4z m1592 -2109 c363 -59 708 -318 878 -660 135 -271 160 -621
66 -912 -139 -430 -507 -750 -951 -827 -113 -20 -306 -20 -419 -1 -622 109
-1062 683 -1004 1310 28 294 144 541 354 751 289 288 663 406 1076 339z" />
        <path d="M1935 4466 c-45 -20 -83 -70 -90 -119 -3 -23 -5 -314 -3 -647 3 -584
4 -606 23 -639 11 -18 36 -42 55 -52 32 -18 64 -19 440 -19 380 0 408 2 448
20 77 35 103 138 53 209 -41 57 -69 61 -416 61 l-315 0 0 540 c0 590 0 587
-57 628 -39 28 -100 36 -138 18z" />
        <path d="M3554 2456 c-49 -21 -76 -68 -81 -140 l-5 -63 -60 -28 c-81 -39 -159
-119 -205 -212 -32 -65 -37 -86 -41 -164 -5 -100 6 -153 49 -241 47 -93 160
-191 252 -220 18 -5 71 -15 118 -23 127 -20 194 -72 206 -164 7 -49 -25 -121
-66 -151 -83 -58 -213 -32 -257 52 -8 16 -19 54 -24 85 -11 66 -29 97 -73 123
-61 37 -152 16 -188 -44 -42 -69 -15 -224 59 -334 41 -63 128 -135 190 -158
42 -17 42 -17 42 -68 0 -93 50 -154 131 -163 88 -9 144 47 155 154 l7 60 57
27 c62 30 148 109 187 172 104 172 75 399 -72 548 -78 79 -176 122 -327 144
-81 12 -119 37 -147 95 -27 56 -27 103 2 158 59 111 223 120 294 16 12 -18 26
-60 32 -94 12 -74 31 -106 76 -127 104 -50 205 20 205 140 0 153 -109 323
-251 390 l-57 27 -5 59 c-6 70 -31 115 -77 139 -41 22 -83 24 -126 5z" />
    </g>
</svg>
